<?xml version="1.0" standalone="no"?>
<!DOCTYPE svg PUBLIC "-//W3C//DTD SVG 20010904//EN"
 "http://www.w3.org/TR/2001/REC-SVG-20010904/DTD/svg10.dtd">
<svg version="1.0" xmlns="http://www.w3.org/2000/svg"
 width="158.000000pt" height="141.000000pt" viewBox="0 0 158.000000 141.000000"
 preserveAspectRatio="xMidYMid meet">

<g transform="translate(0.000000,141.000000) scale(0.100000,-0.100000)"
fill="#000000" stroke="none">
<path d="M835 1165 c-5 -2 -38 -9 -72 -16 -35 -7 -63 -17 -63 -21 0 -5 7 -20
16 -34 11 -15 17 -46 17 -79 0 -46 2 -53 14 -44 25 21 25 1 -1 -39 -25 -40
-25 -41 -5 -47 35 -12 111 5 185 40 63 29 135 55 157 55 16 0 6 -19 -13 -25
-12 -4 -17 -11 -14 -18 4 -7 4 -9 -1 -5 -19 18 -149 -86 -142 -114 3 -10 2
-18 -3 -18 -20 0 -17 -33 5 -66 14 -20 26 -46 27 -58 5 -57 2 -104 -7 -103 -5
1 -9 -4 -10 -11 0 -7 -5 -16 -10 -20 -22 -15 -56 -72 -49 -83 4 -8 3 -9 -4 -5
-7 4 -17 -6 -26 -26 l-14 -33 -1 36 c-1 20 8 65 19 100 21 63 20 139 -1 139
-5 0 -9 -5 -9 -10 0 -6 -11 -20 -25 -32 -13 -11 -22 -24 -20 -28 2 -3 -9 -6
-26 -6 -16 0 -29 3 -29 7 0 4 -18 14 -39 22 -22 9 -43 22 -47 28 -4 8 -3 9 5
5 6 -4 17 -4 24 1 7 5 24 9 39 8 21 -1 28 5 33 25 17 72 24 80 76 80 54 0 67
20 28 41 -12 6 -19 7 -15 1 11 -17 -124 14 -154 36 -24 18 -34 20 -55 12 -38
-14 -90 -12 -132 5 -24 10 -40 12 -46 6 -6 -6 -12 -57 -14 -113 -4 -86 -1
-113 16 -161 31 -89 99 -177 173 -224 95 -61 151 -76 272 -71 91 3 109 7 167
35 35 18 81 46 101 63 50 41 115 141 133 204 16 57 25 155 14 161 -3 3 -4 16
-1 30 2 14 -1 32 -8 40 -6 8 -8 20 -4 26 4 8 3 9 -4 5 -11 -7 -16 7 -15 41 1
7 -3 11 -7 8 -11 -7 -33 41 -25 54 4 7 1 10 -7 9 -7 -2 -12 5 -12 14 1 10 -2
15 -7 13 -4 -3 -24 13 -45 35 -20 22 -46 43 -58 46 -11 4 -25 13 -31 19 -24
30 -202 72 -250 60z m197 -111 c8 -18 7 -29 -5 -47 -16 -25 -68 -43 -64 -23 1
6 -3 10 -9 9 -13 -2 -18 64 -4 72 6 3 8 10 6 14 -3 4 11 5 30 3 25 -3 39 -11
46 -28z m-176 -85 c4 -8 9 -7 16 2 8 13 4 -22 -8 -58 -4 -15 -40 -17 -49 -3
-4 6 -10 8 -15 5 -10 -6 0 36 13 53 12 15 34 16 43 1z"/>
<path d="M494 1131 c-81 -49 -80 -174 2 -228 36 -23 108 -21 141 3 36 27 40
44 11 43 -18 -1 -19 -2 -5 -6 18 -5 18 -5 0 -19 -25 -19 -35 -17 -28 5 3 11 1
22 -5 26 -5 3 -10 16 -11 28 0 12 -3 16 -6 10 -7 -20 -41 -15 -53 6 -15 28
-13 39 11 52 17 9 25 7 42 -9 17 -16 26 -18 40 -10 14 7 22 6 32 -9 8 -10 15
-24 15 -30 0 -7 5 -13 10 -13 16 0 12 83 -6 108 -21 30 -34 28 -34 -7 0 -21
-6 -32 -21 -36 -26 -9 -59 20 -59 52 0 13 -7 26 -16 30 -13 5 -13 7 -2 14 10
6 8 9 -7 9 -11 0 -34 -9 -51 -19z m50 -7 c23 -9 20 -57 -4 -72 -15 -9 -26 -10
-40 -2 -13 7 -20 7 -20 1 0 -6 9 -15 20 -21 29 -16 44 -48 30 -65 -6 -8 -9
-23 -5 -35 7 -23 2 -25 -27 -9 -17 9 -18 13 -7 20 11 7 11 9 -2 9 -24 0 -43
48 -27 68 10 12 10 14 1 8 -26 -15 -13 31 18 67 33 39 37 41 63 31z m136 -75
c0 -11 -4 -17 -10 -14 -5 3 -10 15 -10 26 0 11 5 17 10 14 6 -3 10 -15 10 -26z
m-85 -90 c12 -19 -4 -59 -25 -59 -22 0 -44 34 -36 56 6 16 52 19 61 3z"/>
<path d="M188 253 c-15 -4 -18 -16 -18 -69 0 -92 30 -86 79 16 19 38 19 42 4
25 -11 -11 -29 -29 -41 -39 l-22 -20 6 40 c3 21 8 42 11 47 2 4 3 6 1 6 -2 -1
-11 -3 -20 -6z"/>
<path d="M291 243 c6 -7 9 -20 5 -28 -3 -8 -1 -15 4 -15 6 0 1 -9 -10 -20 -25
-25 -27 -63 -3 -58 9 2 17 14 18 27 1 13 10 30 19 36 11 9 13 14 5 17 -9 3 -9
9 -1 25 10 19 8 21 -18 25 -23 4 -27 2 -19 -9z"/>
<path d="M398 233 c2 -12 -3 -38 -12 -57 -19 -40 -20 -56 -5 -56 6 0 16 14 22
30 14 37 22 37 43 5 9 -14 24 -25 32 -25 12 0 11 4 -6 16 -17 12 -20 19 -12
33 8 15 6 17 -15 13 -20 -3 -24 -1 -20 17 2 12 6 25 9 30 3 5 -5 11 -17 13
-20 4 -23 1 -19 -19z"/>
<path d="M675 242 c3 -8 -2 -34 -10 -58 -18 -52 -19 -64 -5 -64 5 0 16 14 23
32 l13 32 24 -32 c19 -26 31 -32 60 -32 34 0 37 2 36 27 -1 20 6 31 24 40 24
12 24 13 3 13 -14 0 -20 5 -19 18 2 12 14 18 45 20 39 3 42 2 39 -20 -2 -13
-6 -25 -10 -28 -4 -4 -11 -20 -14 -38 -6 -31 -6 -32 29 -32 20 0 38 4 41 9 3
4 -6 6 -19 3 -43 -8 -30 39 15 57 l25 10 -28 0 c-27 1 -27 1 -11 27 l17 25
-75 -2 c-48 -1 -75 -6 -74 -13 2 -23 -29 -106 -39 -102 -5 2 -9 9 -7 15 1 7
-2 10 -8 6 -18 -11 -10 25 10 45 25 25 25 36 1 43 -14 3 -17 0 -13 -15 5 -22
-12 -38 -41 -38 -18 0 -18 1 0 33 l19 32 -28 0 c-20 0 -27 -4 -23 -13z"/>
<path d="M985 250 c-3 -5 -1 -10 4 -10 6 0 11 5 11 10 0 6 -2 10 -4 10 -3 0
-8 -4 -11 -10z"/>
<path d="M1002 199 c-24 -62 -27 -79 -12 -79 5 0 17 17 25 37 13 30 18 35 25
23 5 -8 10 -25 10 -38 0 -40 23 -19 46 41 12 31 20 57 17 57 -11 0 -33 -30
-33 -44 0 -9 -4 -16 -10 -16 -10 0 -14 20 -12 55 2 14 -4 21 -16 21 -12 0 -24
-17 -40 -57z"/>
<path d="M72 233 c0 -10 -7 -38 -16 -62 -21 -56 -20 -59 7 -54 19 4 23 10 19
29 -2 13 -9 21 -15 17 -6 -3 -7 -1 -3 5 4 7 18 12 31 12 13 0 27 5 30 10 3 6
-4 10 -16 10 -20 0 -21 1 -5 25 16 24 16 25 -8 25 -17 0 -25 -5 -24 -17z"/>
<path d="M532 230 c-22 -21 -30 -60 -12 -60 6 0 10 6 10 14 0 7 9 25 21 40 24
31 12 35 -19 6z"/>
<path d="M600 240 c8 -5 20 -10 25 -10 6 0 3 5 -5 10 -8 5 -19 10 -25 10 -5 0
-3 -5 5 -10z"/>
<path d="M477 226 c-3 -8 -2 -18 3 -21 13 -8 20 9 11 24 -6 10 -10 9 -14 -3z"/>
<path d="M606 149 c-13 -16 -25 -20 -47 -15 -19 3 -28 2 -24 -4 3 -6 23 -10
44 -10 31 0 40 4 44 22 8 30 4 31 -17 7z"/>
<path d="M211 54 c0 -11 3 -14 6 -6 3 7 2 16 -1 19 -3 4 -6 -2 -5 -13z"/>
<path d="M401 54 c0 -11 3 -14 6 -6 3 7 2 16 -1 19 -3 4 -6 -2 -5 -13z"/>
<path d="M1211 44 c0 -11 3 -14 6 -6 3 7 2 16 -1 19 -3 4 -6 -2 -5 -13z"/>
</g>
</svg>
